<?xml version="1.0" encoding="iso-8859-1"?>
<!-- Generator: Adobe Illustrator 19.0.0, SVG Export Plug-In . SVG Version: 6.00 Build 0)  -->
<svg version="1.1" id="Layer_1" xmlns="http://www.w3.org/2000/svg" xmlns:xlink="http://www.w3.org/1999/xlink" x="0px" y="0px"
	 viewBox="0 0 511.844 511.844" style="enable-background:new 0 0 511.844 511.844;" xml:space="preserve">
<g>
	<rect x="202.602" y="416.622" style="fill:#965353;" width="21.33" height="40.926"/>
	<rect x="245.262" y="416.622" style="fill:#965353;" width="21.321" height="40.926"/>
	<rect x="287.912" y="416.622" style="fill:#965353;" width="21.337" height="40.926"/>
</g>
<path style="fill:#424953;" d="M330.555,457.549H181.28c-5.889,0-10.668,4.764-10.668,10.652s4.78,10.668,10.668,10.668h149.274
	c5.904,0,10.685-4.779,10.685-10.668S336.459,457.549,330.555,457.549z"/>
<path style="fill:#9ED36A;" d="M511.844,230.875c0-15.933-3.874-31.803-11.199-45.9c-5.39-10.356-12.668-19.814-21.322-27.781
	c-1.906-16.87-10.996-32.014-24.648-41.784c-0.141-22.032-8.92-42.713-24.773-58.271c-15.855-15.581-36.927-24.165-59.295-24.165
	c-13.152,0-25.805,2.921-37.27,8.552c-9.295-5.506-20.01-8.505-31.053-8.505c-15.465,0-30.008,5.842-40.957,15.815
	c-7.169-2.905-14.925-4.428-22.93-4.428c-1.008,0-2.023,0.023-3.031,0.078c-12.91-7.561-27.522-11.512-42.752-11.512
	c-34.661,0-65.253,21.001-77.906,51.727c-26,6.669-45.26,30.061-45.26,57.818c0,3.562,0.32,7.1,0.953,10.567
	c-8.216,6.693-14.503,15.425-18.198,25.305C22.759,182.359,0,207.382,0,237.56c0,15.55,6.092,30.123,16.487,41.011
	c-4.499,10.294-6.881,21.493-6.881,32.818c0,18.994,6.686,37.582,18.815,52.296c9.427,11.45,21.837,20.213,35.708,25.367
	c4.101,7.529,9.817,14.184,16.737,19.369c10.567,7.936,23.188,12.122,36.481,12.122c7.521,0,14.824-1.343,21.673-3.952
	c9.013,5.107,19.244,7.826,29.928,7.826c10.458,0,20.517-2.656,29.351-7.514c0.25,0.188,0.5,0.391,0.75,0.578
	c8.794,6.623,19.307,10.137,30.381,10.137c7.857,0,15.448-1.812,22.267-5.139c1.851,1.328,3.78,2.578,5.78,3.702
	c9.324,5.28,19.97,8.06,30.748,8.06c13.668,0,26.617-4.311,37.488-12.48c3.358-2.529,6.436-5.389,9.2-8.528
	c11.2,4.78,23.353,7.311,35.692,7.311c40.862,0,75.992-27.194,86.474-65.059c7.138-3.921,13.495-9.278,18.51-15.698
	c8.231-10.543,12.59-23.164,12.59-36.504c0-2.469-0.14-4.937-0.452-7.389c6.107-7.107,11.152-15.012,15.088-23.587
	C508.814,259.241,511.844,245.3,511.844,230.875z"/>
<path style="opacity:0.2;fill:#FFFFFF;enable-background:new    ;" d="M511.844,230.875c0-15.933-3.874-31.803-11.199-45.9
	c-5.39-10.356-12.668-19.814-21.322-27.781v6.459c7.311,14.097,11.184,29.967,11.184,45.893c0,14.433-3.029,28.374-9.012,41.44
	c-3.922,8.575-8.982,16.471-15.105,23.586c0.312,2.438,0.469,4.905,0.469,7.404c0,13.324-4.358,25.945-12.59,36.488
	c-5.029,6.404-11.371,11.763-18.525,15.699c-10.466,37.863-45.611,65.059-86.475,65.059c-12.34,0-24.492-2.531-35.676-7.326
	c-2.766,3.14-5.842,6.014-9.217,8.544c-10.84,8.169-23.805,12.48-37.48,12.48c-10.786,0-21.415-2.78-30.748-8.06
	c-1.992-1.141-3.921-2.375-5.779-3.718c-6.818,3.343-14.41,5.155-22.259,5.155c-11.083,0-21.587-3.516-30.389-10.154
	c-0.25-0.188-0.5-0.375-0.742-0.562c-8.833,4.858-18.9,7.498-29.358,7.498c-10.676,0-20.916-2.702-29.928-7.811
	c-6.842,2.609-14.152,3.953-21.673,3.953c-11.02,0-21.571-2.891-30.881-8.389c4.014,6.795,9.364,12.824,15.729,17.588
	c10.567,7.936,23.188,12.122,36.481,12.122c7.521,0,14.824-1.343,21.673-3.952c9.013,5.107,19.244,7.826,29.928,7.826
	c10.458,0,20.517-2.656,29.351-7.514c0.25,0.188,0.5,0.391,0.75,0.578c8.794,6.623,19.307,10.137,30.381,10.137
	c7.857,0,15.448-1.812,22.267-5.139c1.851,1.328,3.78,2.578,5.78,3.702c9.324,5.28,19.97,8.06,30.748,8.06
	c13.668,0,26.617-4.311,37.488-12.48c3.358-2.529,6.436-5.389,9.2-8.528c11.2,4.78,23.353,7.311,35.692,7.311
	c40.862,0,75.992-27.194,86.474-65.059c7.138-3.921,13.495-9.278,18.51-15.698c8.231-10.543,12.59-23.164,12.59-36.504
	c0-2.469-0.14-4.937-0.452-7.389c6.107-7.107,11.152-15.012,15.088-23.587C508.814,259.241,511.844,245.3,511.844,230.875z"/>
<g>
</g>
<g>
</g>
<g>
</g>
<g>
</g>
<g>
</g>
<g>
</g>
<g>
</g>
<g>
</g>
<g>
</g>
<g>
</g>
<g>
</g>
<g>
</g>
<g>
</g>
<g>
</g>
<g>
</g>
</svg>
